# xmcd
#
# Track frame offsets:
#	150
#	14030
#	29965
#	45420
#	60682
#	74570
#	86845
#	100857
#	112542
#	127992
#	145227
#	160187
#	173850
#	189170
#	202100
#	217252
#	234167
#	249545
#	260490
#	274212
#	288587
#
# Disc length: 4029 seconds
# Revision: 0
# Processed by: cddbd v1.5.2PL0 Copyright (c) Steve Scherf et al.
# Submitted via: dBpowerAMP V12.0
#
DISCID=3f0fbb15
DTITLE=Various Artist - TM Century GoldDisc 1050N
DYEAR=1979
DGENRE=Country
TTITLE0=Willie Nelson and Leon Russell - Hearbreak Hotel
TTITLE1=Johnny Rodriguez - I Didn't (Every Chance I Had)
TTITLE2=John Conlee - Momma's Rockin' Chair
TTITLE3=Sylvia and Michael Johnson - I Love You By Heart
TTITLE4=Charlie Rich - Every Time You Touch Me
TTITLE5=Gene Watson - Memories To Burn
TTITLE6=Hank Williams Jr. - Old Habits
TTITLE7=Waylon Jennings - Ladies Love Outlaws
TTITLE8=Johnny Lee - Save The Last Chance
TTITLE9=Barbara Mandrell - Only A Lonely Heart Knows
TTITLE10=Larry Gatlin - I've Done Enough Dyin' Today
TTITLE11=Johnny Paycheck - Slide Off Your Satin Sheets
TTITLE12=Ed Bruce - Girls Women And Ladies
TTITLE13=Eddy Raven - I Could Use Another You
TTITLE14=Vern Gosdin - If You're Gonna Do Me Wrong, Do It Right
TTITLE15=Gail Davies - Someone Is Looking For Someone Like You
TTITLE16=The Shooters - They Only Come Out At Night
TTITLE17=The Statler Brothers - Nothing As Original As You
TTITLE18=Micky Gilley and Charlie McClain - Candy Man
TTITLE19=Waylon Jennings - Are Your Ready For The Country
TTITLE20=Marty Stuart - Arlene
EXTD=
EXTT0=
EXTT1=
EXTT2=
EXTT3=
EXTT4=
EXTT5=
EXTT6=
EXTT7=
EXTT8=
EXTT9=
EXTT10=
EXTT11=
EXTT12=
EXTT13=
EXTT14=
EXTT15=
EXTT16=
EXTT17=
EXTT18=
EXTT19=
EXTT20=
PLAYORDER=
